<?xml version="1.0" standalone="no"?>
<!DOCTYPE svg PUBLIC "-//W3C//DTD SVG 20010904//EN"
 "http://www.w3.org/TR/2001/REC-SVG-20010904/DTD/svg10.dtd">
<svg version="1.0" xmlns="http://www.w3.org/2000/svg"
 width="225.000000pt" height="225.000000pt" viewBox="0 0 225.000000 225.000000"
 preserveAspectRatio="xMidYMid meet">
<metadata>
Created by potrace 1.11, written by Peter Selinger 2001-2013
</metadata>
<g transform="translate(0.000000,225.000000) scale(0.100000,-0.100000)"
fill="#000000" stroke="none">
<path d="M985 2240 c-470 -67 -837 -397 -952 -856 -23 -94 -27 -129 -27 -259
0 -130 4 -165 27 -259 66 -265 214 -487 432 -651 113 -85 284 -158 460 -196
97 -22 332 -17 442 9 418 96 736 404 845 818 29 109 31 132 31 279 0 146 -2
170 -30 275 -56 211 -142 360 -297 516 -158 158 -316 247 -527 299 -115 29
-300 40 -404 25z m182 -481 c25 -75 43 -193 43 -285 l0 -65 82 -78 c76 -72 85
-78 103 -65 29 20 53 17 80 -11 19 -19 25 -35 25 -70 0 -49 7 -58 213 -246 46
-42 48 -46 45 -92 l-3 -48 -235 117 c-261 128 -301 147 -308 139 -3 -3 -13
-103 -23 -222 -15 -176 -16 -220 -6 -228 81 -63 167 -140 167 -149 0 -6 -4
-17 -9 -25 -8 -12 -22 -10 -93 12 -101 32 -136 33 -231 6 -122 -35 -117 -35
-117 -2 0 25 12 38 85 92 47 34 87 66 90 70 2 5 -2 100 -10 212 -8 112 -15
210 -15 217 0 9 -7 11 -22 6 -20 -6 -212 -90 -458 -199 -41 -19 -75 -33 -77
-32 -1 1 1 21 4 45 5 38 16 52 130 159 l125 117 -5 50 c-4 42 -1 53 19 73 27
27 51 29 82 7 22 -15 25 -13 80 34 107 94 113 103 118 173 8 124 14 167 34
235 44 147 53 153 87 53z"/>
</g>
</svg>
